<svg xmlns="http://www.w3.org/2000/svg" xml:space="preserve" style="fill-rule:evenodd;clip-rule:evenodd;stroke-linejoin:round;stroke-miterlimit:2" viewBox="0 0 256 256"><path d="M932.547 318.466v604.881c0 12.269-9.946 22.229-22.196 22.229H510.84c-12.25 0-22.195-9.96-22.195-22.229V318.466c0-12.268 9.945-22.228 22.195-22.228h399.511c12.25 0 22.196 9.96 22.196 22.228Z" style="fill-opacity:.2" transform="matrix(.3717 0 0 .37115 -101.63 -99.948)"/><path d="M932.547 318.466v604.881c0 12.269-9.946 22.229-22.196 22.229H510.84c-12.25 0-22.195-9.96-22.195-22.229V318.466c0-12.268 9.945-22.228 22.195-22.228h399.511c12.25 0 22.196 9.96 22.196 22.228Z" style="fill:url(#a)" transform="matrix(.3717 0 0 .37115 -101.63 -102.948)"/><path d="M488.645 441.601V318.512c0-12.293 9.945-22.274 22.195-22.274h399.511c12.25 0 22.196 9.981 22.196 22.274v109.407L624.344 570.641l-135.699-129.04Z" style="fill:#6b6a6a" transform="matrix(.3717 0 0 .37115 -101.63 -103.948)"/><path d="m488.645 441.601 135.699 129.04-135.699 62.84v-191.88Z" style="fill:#4a4949" transform="matrix(.3717 0 0 .37115 -101.63 -103.948)"/><path d="M932.547 427.919v253.15l-165.601 25.177-142.602-135.605 308.203-142.722Z" style="fill:#4b4a4a" transform="matrix(.3717 0 0 .37115 -101.63 -103.948)"/><path d="M488.645 748.557V633.481l135.699-62.84 142.602 135.605-278.301 42.311Z" style="fill:#393939" transform="matrix(.3717 0 0 .37115 -101.63 -103.948)"/><path d="m766.946 706.246 165.601-25.177v182.65L766.946 706.246Z" style="fill:#303030" transform="matrix(.3717 0 0 .37115 -101.63 -103.948)"/><path d="m488.645 748.557 278.301-42.311 165.601 157.473v56.627L488.645 774.561v-26.004Z" style="fill:#282828" transform="matrix(.3717 0 0 .37115 -101.63 -103.948)"/><path d="M932.547 920.346v2.955c0 12.294-9.946 22.275-22.196 22.275H510.84c-12.25 0-22.195-9.981-22.195-22.275v-148.74l443.902 145.785Z" style="fill:#1c1c1c" transform="matrix(.3717 0 0 .37115 -101.63 -103.948)"/><path d="M488.645 326.549v-8.083c0-12.268 9.945-22.228 22.195-22.228h399.511c12.25 0 22.196 9.96 22.196 22.228v8.083c0-12.268-9.946-22.228-22.196-22.228H510.84c-12.25 0-22.195 9.96-22.195 22.228Z" style="fill-rule:evenodd;clip-rule:evenodd;stroke-linejoin:round;stroke-miterlimit:2;fill:#fff;fill-opacity:.2" transform="matrix(.3717 0 0 .37115 -101.63 -103.948)"/><defs><linearGradient id="a" x1="0" x2="1" y1="0" y2="0" gradientTransform="matrix(0 649.338 -647.027 0 932.547 296.238)" gradientUnits="userSpaceOnUse"><stop offset="0" style="stop-color:#6b6a6a;stop-opacity:1"/><stop offset="1" style="stop-color:#1c1c1c;stop-opacity:1"/></linearGradient></defs></svg>