<svg xmlns="http://www.w3.org/2000/svg" xml:space="preserve" style="fill-rule:evenodd;clip-rule:evenodd;stroke-linejoin:round;stroke-miterlimit:2" viewBox="0 0 732 732"><path d="M47.388 627.14 27.223 727.967H0l47.053-234.59h83.685c41.339 0 58.143 23.862 58.143 56.127 0 35.96-23.862 67.553-61.504 74.948l34.282 103.515h-29.24L100.49 627.14H47.388Zm5.042-23.862h61.84c22.182 0 37.978-11.763 42.347-33.61 3.025-15.122 4.033-19.492 4.033-24.87 0-16.131-8.402-27.223-31.929-27.223H69.234L52.43 603.278Zm182.831-48.732h25.88L239.63 661.42c-1.344 6.722-1.68 13.78-1.68 17.813 0 19.157 7.393 29.24 25.878 29.24 12.099 0 22.182-4.37 31.256-13.78 12.435-12.772 20.166-30.248 22.854-43.356l19.493-96.792h25.879l-30.247 150.566h24.534l-4.37 22.855h-23.525c-14.789 0-22.183-8.738-22.183-21.174 0-2.353.337-5.04 1.345-9.747l.672-3.36h-1.68C295.757 719.9 279.625 732 255.763 732c-29.576 0-44.364-18.15-44.364-48.06 0-6.386.672-14.117 2.353-22.519l21.51-106.875Zm181.825 173.42h-25.88l34.954-173.42h25.879l-7.058 34.28h1.68c12.099-25.88 28.231-38.314 53.102-38.314 29.912 0 44.7 18.15 44.7 48.061 0 6.385-.673 14.116-2.353 22.518l-16.805 84.021h24.535l-4.37 22.855h-24.533c-12.772 0-21.51-6.05-21.51-19.494 0-2.016 0-3.696.672-7.057l16.132-80.325c1.345-6.722 1.68-13.78 1.68-17.813 0-19.494-8.065-29.24-26.55-29.24-12.436 0-22.519 4.37-31.928 13.78-11.428 11.427-20.166 29.576-22.855 43.355l-19.492 96.794ZM651.002 732c-41.338 0-65.537-25.543-65.537-72.596 0-57.47 36.297-108.892 90.744-108.892 29.575 0 55.79 15.124 55.79 46.38 0 37.978-38.985 56.127-119.646 56.799-.672 4.706-1.009 10.42-1.009 14.116 0 24.534 14.452 41.003 41.339 41.003 21.846 0 39.659-11.092 53.101-27.56l16.805 15.124C701.08 722.59 675.873 732 651.002 732Zm22.518-159.306c-27.223 0-49.404 20.165-55.79 51.085l-2.016 9.747c74.274-2.689 89.735-13.108 89.735-36.97 0-18.485-15.46-23.862-31.929-23.862Z"/></svg>