<svg xmlns="http://www.w3.org/2000/svg" xml:space="preserve" width="100%" height="100%" fill-rule="evenodd" stroke-linejoin="round" stroke-miterlimit="2" clip-rule="evenodd" version="1.1" viewBox="0 0 5360 2814">
  <path fill="url(#a)" d="M1746.62 243.905h1020.79v279.107H1746.62z" transform="matrix(0 -.95456 19.2041 0 -4683.98 4481.26)"/>
  <path fill="url(#b)" d="M1746.62 243.905h1020.79v279.107H1746.62z" transform="matrix(0 .95456 19.2041 0 -4683.98 -1667.24)"/>
  <path d="M409.894 119.02H4950.11c119.71 0 216.89 97.17 216.89 216.88v2142.22c0 119.72-97.18 216.89-216.89 216.89H409.895c-119.701 0-216.888-97.17-216.888-216.89V335.9c0-119.71 97.187-216.88 216.888-216.88h-.001Z"/>
  <defs>
    <linearGradient id="a" x1="0" x2="1" y1="0" y2="0" gradientTransform="translate(1746.62 383.458) scale(1020.79)" gradientUnits="userSpaceOnUse">
      <stop offset="0" stop-color="#080000" stop-opacity=".25"/>
      <stop offset=".05" stop-color="#fff" stop-opacity="0"/>
      <stop offset=".08" stop-color="#fff" stop-opacity=".2"/>
      <stop offset=".44" stop-color="#fff" stop-opacity="0"/>
      <stop offset="1" stop-color="#fff" stop-opacity="0"/>
    </linearGradient>
    <linearGradient id="b" x1="0" x2="1" y1="0" y2="0" gradientTransform="translate(1746.62 383.458) scale(1020.79)" gradientUnits="userSpaceOnUse">
      <stop offset="0" stop-color="#080000" stop-opacity=".25"/>
      <stop offset=".05" stop-color="#fff" stop-opacity="0"/>
      <stop offset=".08" stop-color="#fff" stop-opacity=".2"/>
      <stop offset=".44" stop-color="#fff" stop-opacity="0"/>
      <stop offset="1" stop-color="#fff" stop-opacity="0"/>
    </linearGradient>
  </defs>
</svg>
