<svg xmlns="http://www.w3.org/2000/svg" xml:space="preserve" width="100%" height="100%" fill-rule="evenodd" stroke-linejoin="round" stroke-miterlimit="2" clip-rule="evenodd" version="1.1" viewBox="0 0 5360 2814">
  <path d="M109.466 1271.68c4.827 2.49 8.13 7.53 8.13 13.33v244c0 5.81-3.303 10.84-8.13 13.34-4.827-2.5-8.13-7.53-8.13-13.34v-244c0-5.8 3.303-10.84 8.13-13.33Z"/>
  <path fill-opacity=".6" d="M109.467 1542.35a14.955 14.955 0 0 1-6.87 1.668c-8.278 0-15-6.722-15-15v-244.004c0-8.279 6.722-14.99 15-14.99 2.475 0 4.811.6 6.87 1.657-4.828 2.492-8.131 7.536-8.131 13.333v244.003c0 5.808 3.303 10.842 8.131 13.334Z"/>
  <circle cx="4279.22" cy="5505.63" r="71.987" fill="url(#a)" transform="rotate(90 7550.585 3405.615) scale(1.08648)"/>
  <circle cx="4279.22" cy="5505.63" r="71.987" fill="#0e0d0d" transform="rotate(90 5906.785 3199.565) scale(.7505)"/>
  <circle cx="4273.69" cy="5496.11" r="3.59" fill="#303030" transform="rotate(-90 2128.147 2649.872)"/>
  <path fill="#303030" d="M4953.653 489.71c4.88-6.79 12.83-11.21 21.82-11.21 14.81 0 26.83 12.02 26.83 26.83 0 6.75-2.49 12.91-6.61 17.63a26.7 26.7 0 0 0 5.02-15.62c0-14.81-12.02-26.84-26.83-26.84-8.07 0-15.3 3.57-20.23 9.21Z"/>
  <path fill="#303030" d="M4986.682 514.543c-2.65 5.007-7.916 8.422-13.974 8.422-8.714 0-15.792-7.078-15.792-15.792a15.7 15.7 0 0 1 3.772-10.24 15.66 15.66 0 0 0-1.824 7.37c0 8.714 7.078 15.792 15.792 15.792 4.812 0 9.123-2.156 12.026-5.552Z"/>
  <path fill="#fff" fill-opacity=".26" d="M5104.33 2630.57c-39.33 39.78-93.92 64.44-154.22 64.44H409.892c-75.289 0-141.669-38.44-180.565-96.76 364.183-22.45 750.623-25.22 1115.083-30.18 1205.27-8.28 2411.46-22.85 3616.04 28.13 57.88 6.29 109.1 18.71 143.88 34.37Zm-.001-2447.12c-39.33-39.78-93.92-64.44-154.22-64.44H409.891c-75.289 0-141.669 38.44-180.565 96.76 364.183 22.45 750.623 25.22 1115.083 30.18 1205.27 8.28 2411.46 22.85 3616.04-28.13 57.88-6.29 109.1-18.71 143.88-34.37Z"/>
  <defs>
    <linearGradient id="a" x1="0" x2="1" y1="0" y2="0" gradientTransform="rotate(90 -577.21 4856.43) scale(143.973)" gradientUnits="userSpaceOnUse">
      <stop offset="0" stop-color="#171717" stop-opacity="1"/>
      <stop offset="1" stop-color="#000" stop-opacity="1"/>
    </linearGradient>
  </defs>
</svg>
