<svg xmlns="http://www.w3.org/2000/svg" xml:space="preserve" style="fill-rule:evenodd;clip-rule:evenodd;stroke-linejoin:round;stroke-miterlimit:2" viewBox="0 0 6400 2814"><path d="M0 1796.01h6400v2814H0z" style="fill:none" transform="translate(0 -1796.01)"/><path d="M629.466 1271.676c4.827 2.491 8.13 7.536 8.13 13.333v244.003c0 5.807-3.303 10.842-8.13 13.333-4.827-2.491-8.13-7.526-8.13-13.333V1285.01c0-5.797 3.303-10.842 8.13-13.333Z"/><path d="M3069.3 632.254a14.803 14.803 0 0 1-1.64-6.8c0-8.195 6.61-14.848 14.75-14.848h239.92c8.14 0 14.74 6.653 14.74 14.848 0 2.45-.59 4.762-1.63 6.8-2.45-4.779-7.41-8.049-13.11-8.049h-239.92c-5.71 0-10.66 3.27-13.11 8.049Z" style="fill-opacity:.6" transform="matrix(0 -1.01702 1.01023 0 -9.255 4663.885)"/><circle cx="4279.22" cy="5505.63" r="71.987" style="fill:url(#a)" transform="rotate(90 7810.58 3665.61) scale(1.08648)"/><circle cx="4279.22" cy="5505.63" r="71.987" style="fill:#0e0d0d" transform="matrix(0 .7505 -.7505 0 9626.349 -2707.22)"/><circle cx="4273.69" cy="5496.11" r="3.59" style="fill:#303030" transform="rotate(-90 2388.145 2389.87)"/><path d="M4294.53 5476.05c6.79 4.88 11.21 12.83 11.21 21.82 0 14.81-12.02 26.83-26.83 26.83-6.75 0-12.91-2.49-17.63-6.61a26.7 26.7 0 0 0 15.62 5.02c14.81 0 26.84-12.02 26.84-26.83 0-8.07-3.57-15.3-9.21-20.23Z" style="fill:#303030" transform="rotate(-90 2390.923 2393.32)"/><path d="M4264.29 5522.51c-7.71-4.08-12.97-12.19-12.97-21.52 0-13.42 10.9-24.32 24.32-24.32 6.02 0 11.52 2.18 15.77 5.81-3.39-1.8-7.25-2.81-11.35-2.81-13.42 0-24.32 10.9-24.32 24.32 0 7.41 3.32 14.05 8.55 18.52Z" style="fill:#303030" transform="rotate(-90 2602.098 681.458) scale(.64935)"/><path d="M1910.56 5627.34c-39.78-39.33-64.44-93.92-64.44-154.22V932.902c0-75.289 38.44-141.669 96.76-180.565 22.45 364.183 25.22 750.623 30.18 1115.083 8.28 1205.27 22.85 2411.46-28.13 3616.04-6.29 57.88-18.71 109.1-34.37 143.88Z" style="fill:#fff;fill-opacity:.26" transform="rotate(-90 2269.06 2272.07)"/><path d="M1910.56 5627.34c-39.78-39.33-64.44-93.92-64.44-154.22V932.902c0-75.289 38.44-141.669 96.76-180.565 22.45 364.183 25.22 750.623 30.18 1115.083 8.28 1205.27 22.85 2411.46-28.13 3616.04-6.29 57.88-18.71 109.1-34.37 143.88Z" style="fill:#fff;fill-opacity:.26" transform="matrix(0 1 1 0 -3.011 -1727.11)"/><defs><linearGradient id="a" x1="0" x2="1" y1="0" y2="0" gradientTransform="rotate(90 -577.21 4856.43) scale(143.973)" gradientUnits="userSpaceOnUse"><stop offset="0" style="stop-color:#171717;stop-opacity:1"/><stop offset="1" style="stop-color:black;stop-opacity:1"/></linearGradient></defs></svg>