<svg xmlns="http://www.w3.org/2000/svg" xml:space="preserve" style="fill-rule:evenodd;clip-rule:evenodd;stroke-linejoin:round;stroke-miterlimit:2" viewBox="0 0 732 732"><path d="M548.997 49.039C723.939 150.042 783.963 374.053 682.96 548.996 581.957 723.938 357.946 783.962 183.003 682.959 8.061 581.956-51.963 357.944 49.04 183.002 150.043 8.06 374.055-51.964 548.997 49.039ZM332.343 69.28c-80.355 9.207-156.063 50.76-206.522 119.17l49.149 28.377-33.672 58.32-49.148-28.375C58.133 324.676 60 411.017 92.206 485.21l49.058-28.333 33.66 58.314-49.12 28.35c23.664 32.072 54.163 59.903 90.87 81.096 36.709 21.193 76.06 33.691 115.668 38.149l-.011-56.663 67.331-.007-.005 56.6c80.356-9.206 156.063-50.758 206.522-119.17l-49.089-28.342 33.672-58.32 49.089 28.341c34.017-77.905 32.148-164.246-.056-238.44l-49.07 28.354-33.68-58.326 49.152-28.358c-23.665-32.073-54.163-59.903-90.871-81.097-36.708-21.193-76.06-33.69-115.668-38.148l.014 56.796-67.351-.004.022-56.723Z"/></svg>