<svg xmlns="http://www.w3.org/2000/svg" xml:space="preserve" style="fill-rule:evenodd;clip-rule:evenodd;stroke-linejoin:round;stroke-miterlimit:2" viewBox="0 0 832 832"><path d="M16 0c8.831 0 16 7.169 16 16s-7.169 16-16 16S0 24.831 0 16 7.169 0 16 0ZM8.254 5.667a12.907 12.907 0 0 0-5.078 8.791h2.277v3.084H3.176a12.907 12.907 0 0 0 5.078 8.791l1.137-1.97 2.671 1.542-1.139 1.973A12.86 12.86 0 0 0 16 28.916c1.802 0 3.518-.37 5.077-1.038l-1.139-1.973 2.671-1.542 1.137 1.97a12.907 12.907 0 0 0 5.078-8.791h-2.277v-3.084h2.277a12.907 12.907 0 0 0-5.078-8.791l-1.137 1.97-2.671-1.542 1.139-1.973A12.86 12.86 0 0 0 16 3.084c-1.802 0-3.518.37-5.077 1.038l1.139 1.973-2.671 1.542-1.137-1.97Zm7.713 5.533a4.822 4.822 0 0 1 4.819 4.819c0 2.66-2.16 4.82-4.819 4.82-2.66 0-4.82-2.16-4.82-4.82s2.16-4.819 4.82-4.819Zm0 3.084a1.736 1.736 0 0 0 0 3.47 1.736 1.736 0 0 0 0-3.47Z" style="fill:#fff" transform="scale(25.9374) rotate(30 15.895 16.182)"/></svg>