<svg xmlns="http://www.w3.org/2000/svg" xml:space="preserve" style="fill-rule:evenodd;clip-rule:evenodd;stroke-linejoin:round;stroke-miterlimit:2" viewBox="0 0 44 44"><path d="M30 8.144C37.648 12.559 40.272 22.352 35.856 30 31.441 37.648 21.648 40.272 14 35.856 6.352 31.441 3.728 21.648 8.144 14 12.559 6.352 22.352 3.728 30 8.144Zm-9.542.95a12.993 12.993 0 0 0-8.866 5.116l2.045 1.181-1.542 2.67-2.045-1.18a12.993 12.993 0 0 0 .002 10.236l2.043-1.18 1.542 2.672-2.046 1.182a12.955 12.955 0 0 0 3.91 3.467c1.573.909 3.259 1.45 4.956 1.652l.001-2.363h3.084v2.36a12.993 12.993 0 0 0 8.867-5.117l-2.046-1.181 1.542-2.671 2.046 1.18a12.993 12.993 0 0 0-.002-10.235l-2.044 1.179-1.542-2.671 2.046-1.182a12.955 12.955 0 0 0-3.909-3.467 12.955 12.955 0 0 0-4.957-1.652v2.363h-3.085v-2.36Zm3.914 8.732a4.821 4.821 0 0 1 1.763 6.583 4.822 4.822 0 0 1-6.583 1.765 4.823 4.823 0 0 1-1.764-6.584 4.822 4.822 0 0 1 6.584-1.764Zm-1.5 2.599a1.82 1.82 0 0 0-1.82 3.151 1.82 1.82 0 0 0 1.82-3.151Z"/></svg>