<?xml version="1.0" encoding="UTF-8" standalone="no"?>
<!DOCTYPE svg PUBLIC "-//W3C//DTD SVG 1.1//EN" "http://www.w3.org/Graphics/SVG/1.1/DTD/svg11.dtd">
<svg width="100%" height="100%" viewBox="0 0 832 832" version="1.1" xmlns="http://www.w3.org/2000/svg" xmlns:xlink="http://www.w3.org/1999/xlink" xml:space="preserve" xmlns:serif="http://www.serif.com/" style="fill-rule:evenodd;clip-rule:evenodd;stroke-linejoin:round;stroke-miterlimit:2;">
    <g transform="matrix(1.49102,0,0,-1.49102,-450.949,1340.43)">
        <path d="M327.557,735.606C334.931,751.846 343.878,767.43 354.33,782.104C376.803,813.656 406.235,841.002 441.948,861.621C477.662,882.24 516.06,894.056 554.621,897.742C572.555,899.457 590.524,899.413 608.276,897.679C686.501,890.038 760.491,849.572 808.551,782.095C813.696,774.871 818.545,767.337 823.069,759.5C827.594,751.663 831.694,743.697 835.378,735.629C869.785,660.269 867.834,575.959 835.339,504.394C827.965,488.154 819.018,472.57 808.566,457.896C786.093,426.344 756.662,398.998 720.948,378.379C685.235,357.76 646.837,345.944 608.276,342.258C590.342,340.543 572.372,340.587 554.621,342.321C476.396,349.962 402.406,390.428 354.346,457.905C349.2,465.129 344.352,472.663 339.827,480.5C335.303,488.337 331.202,496.303 327.518,504.371C293.111,579.731 295.062,664.041 327.557,735.606ZM401.078,484.886C438.848,434.356 494.987,403.494 554.621,396.285L554.621,437.046L608.276,437.046L608.276,396.224C637.681,399.724 666.869,409.111 694.121,424.845C721.373,440.579 744.096,461.163 761.83,484.879L726.504,505.274L753.331,551.741L788.605,531.376C812.178,586.625 813.52,650.673 788.645,708.648L753.371,688.282L726.544,734.748L761.818,755.114C724.048,805.644 667.909,836.506 608.276,843.715L608.276,803.046L554.621,803.046L554.621,843.776C525.215,840.276 496.028,830.889 468.776,815.155C441.523,799.421 418.8,778.837 401.066,755.121L436.366,734.741L409.539,688.274L374.292,708.624C350.718,653.375 349.376,589.327 374.251,531.352L409.578,551.748L436.406,505.282L401.078,484.886ZM581.448,705.5C628.913,705.5 667.448,666.965 667.448,619.5C667.448,572.035 628.913,533.5 581.448,533.5C533.984,533.5 495.448,572.035 495.448,619.5C495.448,666.965 533.984,705.5 581.448,705.5ZM581.448,649.47C564.882,649.47 551.432,636.02 551.432,619.454C551.432,602.887 564.882,589.438 581.448,589.438C598.015,589.438 611.464,602.887 611.464,619.454C611.464,636.02 598.015,649.47 581.448,649.47Z"/>
    </g>
</svg>
