<svg xmlns="http://www.w3.org/2000/svg" xml:space="preserve" style="fill-rule:evenodd;clip-rule:evenodd;stroke-linejoin:round;stroke-miterlimit:2" viewBox="0 0 200 200"><path d="M56.186 80.048a47.917 47.917 0 0 1 19.74-21.745 47.917 47.917 0 0 1 28.702-6.223c13.5 1.32 26.27 8.302 34.565 19.948a48.995 48.995 0 0 1 4.628 8.016c5.939 13.007 5.6 27.557-.007 39.909a47.917 47.917 0 0 1-19.74 21.745 47.917 47.917 0 0 1-28.702 6.222c-13.5-1.32-26.27-8.301-34.565-19.948a48.995 48.995 0 0 1-4.628-8.016c-5.939-13.007-5.6-27.556.007-39.908Zm12.687 43.268c6.519 8.72 16.206 14.046 26.497 15.29l.001-7.034 9.258.003.001 7.043a38.74 38.74 0 0 0 14.814-4.94 38.74 38.74 0 0 0 11.684-10.36l-6.094-3.52 4.628-8.017 6.086 3.512c4.068-9.534 4.3-20.586.007-30.592l-6.088 3.515-4.628-8.016 6.088-3.515c-6.519-8.721-16.206-14.046-26.497-15.29v7.016l-9.26.001v-7.029a38.74 38.74 0 0 0-14.814 4.94 38.74 38.74 0 0 0-11.684 10.359l6.091 3.516-4.63 8.02-6.081-3.51c-4.068 9.534-4.3 20.585-.007 30.591l6.096-3.519 4.628 8.016-6.096 3.52Zm31.128-38.07c8.19 0 14.84 6.648 14.841 14.84 0 8.191-6.651 14.842-14.841 14.841-8.193.001-14.841-6.65-14.84-14.84 0-8.191 6.648-14.84 14.84-14.841ZM100 94.914a5.183 5.183 0 0 0-5.179 5.179 5.184 5.184 0 0 0 5.181 5.181 5.18 5.18 0 0 0-.002-10.36Z"/></svg>